<svg width="37" height="30" viewBox="0 0 37 30" fill="none" xmlns="http://www.w3.org/2000/svg">
<path d="M21.0623 18.2201C21.6583 16.94 21.9939 15.5111 21.9939 14.0027C21.9939 10.5285 20.219 7.46665 17.5281 5.67441C19.1326 4.02416 20.865 2.39454 22.7135 0.835938C20.5494 2.10737 18.5141 3.56915 16.6328 5.1451C15.2472 4.41511 13.6686 4.00508 11.9941 4.00508C6.47309 4.00508 1.99609 8.48034 1.99609 14.0027C1.99609 16.4972 2.91042 18.7772 4.41887 20.5295C2.50555 24.6675 2.16995 27.9976 3.85751 29.122C5.66436 30.3277 9.59391 28.1429 11.9526 24.5844C11.9526 24.5844 8.30424 27.8748 6.30359 27.1205C5.06846 26.6535 5.06501 24.7695 6.08129 22.0657C7.73775 23.2836 9.78242 23.9998 11.9941 23.9998C14.7335 23.9998 17.2133 22.8995 19.021 21.116L19.3748 21.7855C23.7324 21.4325 36.7439 21.09 36.7439 21.09C36.7439 20.4604 28.1298 21.0296 21.0623 18.2201ZM3.19759 14.0027C3.19759 9.14294 7.1374 5.20735 11.9941 5.20735C13.2967 5.20735 14.5327 5.48937 15.6451 5.99449C10.8775 10.2085 7.18673 15.108 5.00184 19.3394C3.86964 17.8586 3.19759 16.0111 3.19759 14.0027ZM11.9941 22.801C9.93988 22.801 8.05084 22.0968 6.55354 20.9136C8.29386 16.9833 11.8436 11.7088 16.6831 6.55843C19.1533 8.1171 20.7933 10.8676 20.7933 14.0027C20.7933 15.3416 20.4922 16.6113 19.9569 17.7496C18.4216 17.0386 16.9884 16.1494 15.774 15.0267L18.4285 20.0037C16.8214 21.7232 14.5345 22.801 11.9941 22.801Z" fill="#FAF9FB"/>
</svg>
