<svg width="142" height="34" viewBox="0 0 142 34" fill="none" xmlns="http://www.w3.org/2000/svg">
<g clip-path="url(#clip0_67_3722)">
<rect width="142" height="34" fill="#23313D"/>
<path d="M23.6554 20.0048C24.2361 18.7481 24.5654 17.3527 24.5654 15.8793C24.5654 12.4818 22.832 9.48298 20.1972 7.73223C21.766 6.12015 23.4647 4.52541 25.2675 3C23.1527 4.24806 21.1593 5.67813 19.3132 7.22087C17.9611 6.51017 16.4097 6.10281 14.7716 6.10281C9.37205 6.09415 4.99518 10.471 4.99518 15.8793C4.99518 18.3234 5.88789 20.5508 7.36996 22.2669C5.49787 26.3144 5.16852 29.5733 6.82393 30.674C8.59202 31.8527 12.4402 29.7119 14.7456 26.2364C14.7456 26.2364 11.1748 29.4519 9.21605 28.7152C8.01132 28.2559 8.00265 26.4184 8.99937 23.7663C10.6201 24.9537 12.6222 25.6557 14.789 25.6557C17.4671 25.6557 19.8939 24.581 21.662 22.8303L22.0087 23.489C26.2729 23.1423 39.0048 22.8043 39.0048 22.8043C39.0048 22.1889 30.5717 22.7436 23.6554 19.9961V20.0048ZM6.1739 15.8793C6.1739 11.1211 10.0308 7.27287 14.7803 7.27287C16.0544 7.27287 17.2678 7.55022 18.3511 8.04424C13.6883 12.1698 10.0741 16.9627 7.93332 21.1055C6.82393 19.6581 6.16523 17.8467 6.16523 15.8793H6.1739ZM14.7803 24.4857C12.7695 24.4857 10.9235 23.801 9.45872 22.6396C11.1575 18.7914 14.633 13.6345 19.3739 8.59027C21.792 10.1157 23.3954 12.8111 23.3954 15.8706C23.3954 17.1793 23.1007 18.4274 22.5807 19.5368C21.0813 18.8434 19.6772 17.968 18.4898 16.876L21.0899 21.7469C19.5212 23.4283 17.2764 24.4857 14.7976 24.4857H14.7803Z" fill="#DDE2E7"/>
<path d="M48.4148 26H47.3068L50.5114 17.2727H51.6023L54.8068 26H53.6989L51.0909 18.6534H51.0227L48.4148 26ZM48.8239 22.5909H53.2898V23.5284H48.8239V22.5909ZM54.6694 18.2102V17.2727H61.2148V18.2102H58.4705V26H57.4137V18.2102H54.6694ZM62.8459 17.2727H64.1072L67.0732 24.517H67.1754L70.1413 17.2727H71.4027V26H70.4141V19.3693H70.3288L67.6016 26H66.647L63.9197 19.3693H63.8345V26H62.8459V17.2727ZM80.8853 21.6364C80.8853 22.5568 80.7191 23.3523 80.3867 24.0227C80.0543 24.6932 79.5984 25.2102 79.0188 25.5739C78.4393 25.9375 77.7773 26.1193 77.033 26.1193C76.2887 26.1193 75.6268 25.9375 75.0472 25.5739C74.4677 25.2102 74.0117 24.6932 73.6793 24.0227C73.3469 23.3523 73.1808 22.5568 73.1808 21.6364C73.1808 20.7159 73.3469 19.9205 73.6793 19.25C74.0117 18.5795 74.4677 18.0625 75.0472 17.6989C75.6268 17.3352 76.2887 17.1534 77.033 17.1534C77.7773 17.1534 78.4393 17.3352 79.0188 17.6989C79.5984 18.0625 80.0543 18.5795 80.3867 19.25C80.7191 19.9205 80.8853 20.7159 80.8853 21.6364ZM79.8626 21.6364C79.8626 20.8807 79.7362 20.2429 79.4833 19.723C79.2333 19.2031 78.8938 18.8097 78.4648 18.5426C78.0387 18.2756 77.5614 18.142 77.033 18.142C76.5046 18.142 76.0259 18.2756 75.5969 18.5426C75.1708 18.8097 74.8313 19.2031 74.5785 19.723C74.3285 20.2429 74.2035 20.8807 74.2035 21.6364C74.2035 22.392 74.3285 23.0298 74.5785 23.5497C74.8313 24.0696 75.1708 24.4631 75.5969 24.7301C76.0259 24.9972 76.5046 25.1307 77.033 25.1307C77.5614 25.1307 78.0387 24.9972 78.4648 24.7301C78.8938 24.4631 79.2333 24.0696 79.4833 23.5497C79.7362 23.0298 79.8626 22.392 79.8626 21.6364ZM87.435 19.4545C87.3839 19.0227 87.1765 18.6875 86.8129 18.4489C86.4492 18.2102 86.0032 18.0909 85.4748 18.0909C85.0884 18.0909 84.7504 18.1534 84.4606 18.2784C84.1737 18.4034 83.9492 18.5753 83.7873 18.794C83.6282 19.0128 83.5487 19.2614 83.5487 19.5398C83.5487 19.7727 83.604 19.973 83.7148 20.1406C83.8285 20.3054 83.9734 20.4432 84.1495 20.554C84.3256 20.6619 84.5103 20.7514 84.7035 20.8224C84.8967 20.8906 85.0742 20.946 85.2362 20.9886L86.1225 21.2273C86.3498 21.2869 86.6026 21.3693 86.881 21.4744C87.1623 21.5795 87.4308 21.723 87.6864 21.9048C87.945 22.0838 88.158 22.3139 88.3256 22.5952C88.4933 22.8764 88.5771 23.2216 88.5771 23.6307C88.5771 24.1023 88.4535 24.5284 88.2063 24.9091C87.962 25.2898 87.604 25.5923 87.1325 25.8168C86.6637 26.0412 86.0941 26.1534 85.4237 26.1534C84.7987 26.1534 84.2575 26.0526 83.8001 25.8509C83.3455 25.6491 82.9876 25.3679 82.7262 25.0071C82.4677 24.6463 82.3214 24.2273 82.2873 23.75H83.3782C83.4066 24.0795 83.5174 24.3523 83.7106 24.5682C83.9066 24.7812 84.1538 24.9403 84.4521 25.0455C84.7532 25.1477 85.0771 25.1989 85.4237 25.1989C85.8271 25.1989 86.1893 25.1335 86.5103 25.0028C86.8313 24.8693 87.0856 24.6847 87.2731 24.4489C87.4606 24.2102 87.5543 23.9318 87.5543 23.6136C87.5543 23.3239 87.4734 23.0881 87.3114 22.9062C87.1495 22.7244 86.9364 22.5767 86.6722 22.4631C86.408 22.3494 86.1225 22.25 85.8157 22.1648L84.7418 21.858C84.06 21.6619 83.5202 21.3821 83.1225 21.0185C82.7248 20.6548 82.5259 20.179 82.5259 19.5909C82.5259 19.1023 82.658 18.6761 82.9222 18.3125C83.1893 17.946 83.5472 17.6619 83.9961 17.4602C84.4478 17.2557 84.9521 17.1534 85.5089 17.1534C86.0714 17.1534 86.5714 17.2543 87.0089 17.456C87.4464 17.6548 87.793 17.9276 88.0487 18.2741C88.3072 18.6207 88.4435 19.0142 88.4577 19.4545H87.435ZM90.3146 26V17.2727H93.2635C93.9482 17.2727 94.5078 17.3963 94.9425 17.6435C95.38 17.8878 95.7038 18.2188 95.9141 18.6364C96.1243 19.054 96.2294 19.5199 96.2294 20.0341C96.2294 20.5483 96.1243 21.0156 95.9141 21.4361C95.7067 21.8565 95.3857 22.1918 94.951 22.4418C94.5163 22.6889 93.9595 22.8125 93.2805 22.8125H91.1669V21.875H93.2464C93.7152 21.875 94.0916 21.794 94.3757 21.6321C94.6598 21.4702 94.8658 21.2514 94.9936 20.9759C95.1243 20.6974 95.1896 20.3835 95.1896 20.0341C95.1896 19.6847 95.1243 19.3722 94.9936 19.0966C94.8658 18.821 94.6584 18.6051 94.3714 18.4489C94.0845 18.2898 93.7038 18.2102 93.2294 18.2102H91.3714V26H90.3146ZM97.9318 26V17.2727H98.9886V21.1591H103.642V17.2727H104.699V26H103.642V22.0966H98.9886V26H97.9318ZM106.815 26V17.2727H112.082V18.2102H107.871V21.1591H111.809V22.0966H107.871V25.0625H112.15V26H106.815ZM113.987 26V17.2727H116.935C117.617 17.2727 118.177 17.3892 118.614 17.6222C119.052 17.8523 119.376 18.169 119.586 18.5724C119.796 18.9759 119.901 19.4347 119.901 19.9489C119.901 20.4631 119.796 20.919 119.586 21.3168C119.376 21.7145 119.053 22.027 118.619 22.2543C118.184 22.4787 117.629 22.5909 116.952 22.5909H114.566V21.6364H116.918C117.384 21.6364 117.759 21.5682 118.043 21.4318C118.33 21.2955 118.538 21.1023 118.665 20.8523C118.796 20.5994 118.862 20.2983 118.862 19.9489C118.862 19.5994 118.796 19.294 118.665 19.0327C118.535 18.7713 118.326 18.5696 118.039 18.4276C117.752 18.2827 117.373 18.2102 116.901 18.2102H115.043V26H113.987ZM118.094 22.0795L120.242 26H119.015L116.901 22.0795H118.094ZM121.662 26V17.2727H126.929V18.2102H122.719V21.1591H126.657V22.0966H122.719V25.0625H126.998V26H121.662Z" fill="#DDE2E7"/>
</g>
<rect x="0.5" y="0.5" width="141" height="33" stroke="#EEF1F3" stroke-opacity="0.7"/>
<defs>
<clipPath id="clip0_67_3722">
<rect width="142" height="34" fill="white"/>
</clipPath>
</defs>
</svg>
